<?xml version="1.0" encoding="utf-8"?>
<!-- Generator: Adobe Illustrator 16.0.0, SVG Export Plug-In . SVG Version: 6.00 Build 0)  -->
<!DOCTYPE svg PUBLIC "-//W3C//DTD SVG 1.1//EN" "http://www.w3.org/Graphics/SVG/1.1/DTD/svg11.dtd">
<svg version="1.1" id="Calque_1" xmlns="http://www.w3.org/2000/svg" xmlns:xlink="http://www.w3.org/1999/xlink" x="0px" y="0px"
	 width="424.926px" height="100px" viewBox="0 0 424.926 100" enable-background="new 0 0 424.926 100" xml:space="preserve">
<g id="layer1" transform="translate(-937.60684,-1834.4815)">
	<g>
		<path id="path12261" fill="#010202" d="M1359.035,1843.795c0-0.335-0.091-0.574-0.28-0.73c-0.209-0.168-0.57-0.259-1.074-0.259
			h-0.724v1.99h0.873C1358.636,1844.796,1359.035,1844.461,1359.035,1843.795 M1360.163,1847.943h-0.995l-0.634-1.399
			c-0.322-0.701-0.667-1.053-1.043-1.053h-0.535v2.452h-0.82v-5.835h1.643c0.73,0,1.278,0.158,1.654,0.488
			c0.319,0.284,0.479,0.647,0.479,1.1c0,0.401-0.13,0.739-0.392,1.021c-0.256,0.283-0.622,0.475-1.091,0.573v0.025
			c0.325,0.077,0.65,0.435,0.966,1.078l0.769,1.553V1847.943z M1361.981,1845.083c0-1.147-0.392-2.117-1.173-2.886
			c-0.785-0.769-1.741-1.154-2.87-1.154c-1.164,0-2.133,0.385-2.901,1.161c-0.769,0.778-1.151,1.741-1.151,2.879
			c0,1.164,0.398,2.137,1.189,2.911c0.781,0.775,1.738,1.157,2.863,1.157c1.119,0,2.076-0.386,2.863-1.17
			C1361.589,1847.21,1361.981,1846.241,1361.981,1845.083 M1362.533,1845.058c0,1.289-0.443,2.369-1.333,3.239
			c-0.89,0.878-1.979,1.314-3.284,1.314c-1.313,0-2.404-0.431-3.271-1.275c-0.867-0.857-1.298-1.936-1.298-3.243
			c0-1.278,0.44-2.353,1.32-3.236c0.88-0.88,1.977-1.32,3.288-1.32c1.284,0,2.362,0.42,3.235,1.259
			C1362.086,1842.657,1362.533,1843.741,1362.533,1845.058"/>
		<path id="path12265" fill="#010202" d="M1237.82,1861.329h-2.828v-16.185c0-1.279,0.084-2.835,0.234-4.672h-0.064
			c-0.264,1.075-0.507,1.853-0.721,2.334l-8.22,18.522h-1.378l-8.235-18.388c-0.232-0.514-0.476-1.34-0.721-2.468h-0.062
			c0.087,0.966,0.135,2.532,0.135,4.703v16.153h-2.726v-24.103h3.73l7.395,16.808c0.558,1.266,0.919,2.229,1.094,2.885h0.117
			c0.481-1.316,0.864-2.306,1.154-2.955l7.554-16.737h3.539v24.103H1237.82z"/>
		<path id="path12267" fill="#010202" d="M1246.519,1861.328h-2.748v-17.212h2.748V1861.328z M1246.994,1837.946
			c0,0.507-0.178,0.931-0.531,1.279c-0.348,0.347-0.778,0.523-1.283,0.523c-0.49,0-0.918-0.168-1.268-0.504
			c-0.352-0.338-0.523-0.769-0.523-1.298c0-0.497,0.174-0.921,0.523-1.266s0.777-0.51,1.268-0.51c0.505,0,0.936,0.166,1.283,0.51
			C1246.816,1837.025,1246.994,1837.449,1246.994,1837.946"/>
		<path id="path12271" fill="#010202" d="M1263.696,1860.532c-1.32,0.81-2.896,1.211-4.716,1.211c-2.469,0-4.455-0.818-5.973-2.454
			c-1.473-1.589-2.216-3.639-2.216-6.151c0-2.819,0.807-5.102,2.433-6.837c1.617-1.737,3.791-2.604,6.527-2.604
			c1.495,0,2.822,0.293,3.982,0.873v2.829c-1.285-0.903-2.644-1.349-4.101-1.349c-1.754,0-3.179,0.611-4.286,1.833
			c-1.15,1.25-1.734,2.921-1.734,5.006c0,2.003,0.533,3.587,1.592,4.758c1.062,1.163,2.475,1.748,4.256,1.748
			c1.506,0,2.915-0.495,4.234-1.48L1263.696,1860.532L1263.696,1860.532z"/>
		<path id="path12275" fill="#010202" d="M1276.842,1846.909c-0.485-0.374-1.183-0.556-2.104-0.556c-1.119,0-2.06,0.501-2.822,1.512
			c-0.863,1.129-1.294,2.691-1.294,4.688v8.774h-2.755v-17.211h2.755v3.548h0.065c0.406-1.256,1.031-2.222,1.866-2.907
			c0.781-0.625,1.665-0.94,2.637-0.94c0.733,0,1.278,0.078,1.651,0.234v2.856L1276.842,1846.909z"/>
		<path id="path12279" fill="#010202" d="M1292.197,1852.753c0-2.202-0.498-3.887-1.492-5.04c-0.967-1.11-2.314-1.664-4.053-1.664
			c-1.713,0-3.086,0.561-4.113,1.683c-1.088,1.199-1.629,2.892-1.629,5.089c0,2.061,0.516,3.677,1.559,4.831
			c1.037,1.16,2.434,1.741,4.184,1.741c1.811,0,3.198-0.59,4.148-1.764C1291.732,1856.481,1292.197,1854.857,1292.197,1852.753
			 M1295.021,1852.656c0,2.742-0.773,4.946-2.317,6.598c-1.55,1.658-3.635,2.487-6.256,2.487c-2.583,0-4.64-0.829-6.147-2.487
			c-1.477-1.598-2.219-3.708-2.219-6.332c0-2.995,0.838-5.303,2.521-6.942c1.556-1.521,3.638-2.285,6.246-2.285
			c2.566,0,4.572,0.8,6.018,2.384C1294.298,1847.673,1295.021,1849.866,1295.021,1852.656"/>
		<path id="path12283" fill="#010202" d="M1308.685,1856.724c0,1.409-0.526,2.576-1.582,3.508c-1.151,1.007-2.732,1.511-4.723,1.511
			c-1.629,0-3.058-0.341-4.27-1.036v-2.962c1.35,1.097,2.838,1.648,4.475,1.648c2.18,0,3.273-0.804,3.273-2.404
			c0-0.673-0.238-1.231-0.723-1.661c-0.485-0.44-1.426-0.967-2.826-1.582c-1.441-0.631-2.467-1.278-3.073-1.951
			c-0.728-0.798-1.095-1.833-1.095-3.108c0-1.429,0.572-2.618,1.701-3.564c1.131-0.951,2.585-1.426,4.37-1.426
			c1.368,0,2.593,0.268,3.681,0.807v2.773c-1.135-0.819-2.434-1.227-3.906-1.227c-0.912,0-1.646,0.227-2.191,0.669
			c-0.551,0.452-0.828,1.03-0.828,1.734c0,0.763,0.231,1.355,0.691,1.779c0.408,0.393,1.275,0.87,2.584,1.429
			c1.469,0.615,2.531,1.253,3.178,1.906C1308.259,1854.393,1308.685,1855.445,1308.685,1856.724"/>
		<path id="path12287" fill="#010202" d="M1325.521,1852.753c0-2.202-0.497-3.887-1.494-5.04c-0.965-1.11-2.316-1.664-4.051-1.664
			c-1.713,0-3.086,0.561-4.119,1.683c-1.084,1.199-1.623,2.892-1.623,5.089c0,2.061,0.517,3.677,1.549,4.831
			c1.05,1.16,2.446,1.741,4.193,1.741c1.814,0,3.198-0.59,4.148-1.764C1325.056,1856.481,1325.521,1854.857,1325.521,1852.753
			 M1328.353,1852.656c0,2.742-0.781,4.946-2.328,6.598c-1.543,1.658-3.629,2.487-6.25,2.487c-2.586,0-4.643-0.829-6.15-2.487
			c-1.477-1.598-2.219-3.708-2.219-6.332c0-2.995,0.845-5.303,2.519-6.942c1.556-1.521,3.642-2.285,6.253-2.285
			c2.566,0,4.569,0.8,6.01,2.384C1327.622,1847.673,1328.353,1849.866,1328.353,1852.656"/>
		<path id="path12291" fill="#010202" d="M1340.492,1838.268c-0.541-0.3-1.144-0.453-1.83-0.453c-1.929,0-2.885,1.215-2.885,3.647
			v2.653h4.033v2.334h-4.033v14.878h-2.759v-14.878h-2.927v-2.334h2.927v-2.791c0-1.894,0.581-3.38,1.761-4.452
			c1.01-0.931,2.248-1.393,3.718-1.393c0.852,0,1.515,0.102,1.995,0.3V1838.268z"/>
		<path id="path12295" fill="#010202" d="M1351.366,1861.155c-0.65,0.373-1.518,0.558-2.589,0.558c-3.004,0-4.506-1.693-4.506-5.08
			v-10.181h-2.952v-2.337h2.952v-4.199c0.881-0.278,1.796-0.581,2.762-0.893v5.092h4.333v2.337h-4.333v9.713
			c0,1.154,0.188,1.979,0.584,2.458c0.398,0.494,1.049,0.736,1.967,0.736c0.686,0,1.278-0.183,1.782-0.555V1861.155
			L1351.366,1861.155z"/>
		<path id="path12299" fill="#010202" d="M1202.434,1928.504c0,1.349-0.481,2.516-1.454,3.502c-0.969,0.981-2.146,1.476-3.526,1.476
			c-1.349,0-2.497-0.494-3.437-1.476c-0.941-0.986-1.41-2.153-1.41-3.502c0-1.387,0.469-2.557,1.41-3.526
			c0.939-0.973,2.088-1.454,3.437-1.454c1.38,0,2.558,0.488,3.526,1.474C1201.953,1925.982,1202.434,1927.152,1202.434,1928.504"/>
		<path id="path12303" fill="#010202" d="M1264.119,1932.468h-8.984l-32.616-50.369c-0.763-1.212-1.419-2.529-1.977-3.967h-0.269
			c0.232,1.349,0.352,4.243,0.352,8.679v45.657h-7.407v-63.194h9.613l31.64,49.576c1.26,1.968,2.121,3.377,2.558,4.226h0.176
			c-0.293-1.818-0.446-4.917-0.446-9.292v-44.51h7.363v63.194H1264.119z"/>
		<path id="path12307" fill="#010202" d="M1311.605,1932.468h-33.492v-63.194h32.039v6.696h-24.639v21.021h22.83v6.7h-22.83v22.078
			h26.092V1932.468z"/>
		<path id="path12311" fill="#010202" d="M1362.408,1875.971h-18.203v56.498h-7.404v-56.498h-18.238v-6.699h43.846V1875.971
			L1362.408,1875.971z"/>
	</g>
</g>
<g>
	<path id="path12245" fill="#010202" d="M204.288,89.714h-2.192v6.812h-0.894v-6.812h-2.2v-0.811h5.286V89.714z"/>
	<path id="path12257" fill="#010202" d="M213.263,96.525h-0.89v-5.12c0-0.403,0.031-0.897,0.072-1.479l0,0
		c-0.092,0.348-0.168,0.589-0.237,0.743l-2.595,5.855h-0.436l-2.604-5.812c-0.076-0.161-0.151-0.423-0.234-0.787h-0.031
		c0.031,0.307,0.042,0.803,0.042,1.491v5.107h-0.855v-7.624h1.18l2.338,5.321c0.177,0.399,0.288,0.708,0.345,0.914h0.034
		c0.155-0.42,0.281-0.731,0.368-0.938l2.385-5.298h1.124v7.624H213.263z"/>
	<path id="path12525" fill="#2569B2" d="M151.185,90.591c-1.021-0.973-1.99-2.041-2.943-3.181
		c-4.391,3.109-8.768,5.467-13.114,7.003c1.546,0.755,3.168,1.317,4.89,1.665c1.332,0.272,2.714,0.411,4.166,0.411
		c4.878,0,8.735-0.577,12.019-2.151C154.393,93.36,152.735,92.095,151.185,90.591"/>
	
		<linearGradient id="path12741_1_" gradientUnits="userSpaceOnUse" x1="-0.9414" y1="100.2656" x2="-0.1575" y2="100.2656" gradientTransform="matrix(0 -119.0183 -119.0183 0 12141.1875 -20.625)">
		<stop  offset="0" style="stop-color:#196BB3"/>
		<stop  offset="0.6" style="stop-color:#60C6F1;stop-opacity:0.549"/>
		<stop  offset="1" style="stop-color:#60C6F1;stop-opacity:0.2353"/>
	</linearGradient>
	<path id="path12741" fill="url(#path12741_1_)" d="M232.905,1.011c-12.048,46.458-37.209,83.772-58.303,93.18h-0.04
		c-0.384,0.175-0.764,0.333-1.14,0.487c-0.052,0.031-0.099,0.035-0.139,0.054c-0.11,0.045-0.214,0.079-0.324,0.124
		c-0.052,0.031-0.099,0.041-0.146,0.06c-0.178,0.063-0.352,0.117-0.525,0.188c-0.076,0.031-0.147,0.05-0.219,0.075
		c-0.078,0.031-0.17,0.061-0.261,0.086c-0.079,0.031-0.162,0.055-0.254,0.089c-0.075,0.031-0.153,0.044-0.225,0.075
		c-0.155,0.045-0.297,0.083-0.451,0.137c-0.063,0-0.122,0.034-0.189,0.051c-0.095,0.031-0.202,0.054-0.306,0.082
		c-0.07,0.031-0.13,0.042-0.205,0.058c-0.107,0.031-0.226,0.06-0.332,0.085c-0.143,0.031-0.27,0.061-0.404,0.089
		c0.953,0.353,1.947,0.53,3.019,0.53c20.003,0,40.171-35.847,73.542-95.459H232.9L232.905,1.011z"/>
	
		<linearGradient id="path12831_1_" gradientUnits="userSpaceOnUse" x1="-0.8911" y1="99.8984" x2="-0.1073" y2="99.8984" gradientTransform="matrix(0 -121.8652 -121.8652 0 12212.8125 -14.875)">
		<stop  offset="0" style="stop-color:#378DCC"/>
		<stop  offset="1" style="stop-color:#41A6DE"/>
	</linearGradient>
	<path id="path12831" fill="url(#path12831_1_)" d="M14.863,76.372C35.403,36.791,45.135,11.74,62.313,4.959l0,0
		C44.601,11.891,24.654,38.037,14.863,76.372"/>
	
		<linearGradient id="path12923_1_" gradientUnits="userSpaceOnUse" x1="-0.9443" y1="99.8818" x2="-0.1601" y2="99.8818" gradientTransform="matrix(0 -118.4596 -118.4596 0 11876.5625 -17.75)">
		<stop  offset="0" style="stop-color:#289FDA"/>
		<stop  offset="1" style="stop-color:#289FDA;stop-opacity:0.549"/>
	</linearGradient>
	<path id="path12923" fill="url(#path12923_1_)" d="M24.188,98.808L24.188,98.808c-0.127,0.031-0.253,0.031-0.372,0.046
		c-0.04,0-0.047,0-0.071,0c-0.106,0-0.218,0.031-0.316,0.031c0,0-0.04,0-0.052,0c-0.257,0.031-0.51,0.031-0.755,0.05h-0.079
		c20.79-0.581,30.293-10.99,35.008-26.087c3.584-11.445,6.528-21.086,9.107-29.177c-8.708,12.256-17.455,26.866-26.25,43.233
		c-4.241,7.889-10.69,11.185-16.22,11.889"/>
	<path id="path12961" fill="#289FDA" d="M14.862,76.373c-3.675,7.086-7.695,14.635-12.169,22.614c1.935,0,4.736,0,7.837,0
		c1.037-7.925,2.508-15.481,4.332-22.61"/>
	
		<linearGradient id="path13093_1_" gradientUnits="userSpaceOnUse" x1="2.7935" y1="101.9746" x2="3.577" y2="101.9746" gradientTransform="matrix(-23.0627 130.7947 130.7947 23.0627 -13060.5625 -2720)">
		<stop  offset="0" style="stop-color:#41A6DE;stop-opacity:0.3294"/>
		<stop  offset="0.9615" style="stop-color:#2186C8"/>
		<stop  offset="0.9615" style="stop-color:#2186C8"/>
		<stop  offset="1" style="stop-color:#2186C8"/>
	</linearGradient>
	<path id="path13093" fill="url(#path13093_1_)" d="M176.255,93.4c-0.553,0.281-1.107,0.549-1.652,0.791
		c21.094-9.408,46.256-46.723,58.303-93.181h-2.441C202.786,50.452,193.885,83.549,176.255,93.4"/>
	<path id="path13097" fill="#2497D5" d="M162.481,89.246c4.589-5.602,8.328-15.125,13.431-30.819
		c-5.887,8.087-11.812,15.038-17.743,20.708c0,0.031,0,0.031-0.031,0.05c1.294,3.878,2.714,7.299,4.333,10.061"/>
	<path id="path13101" fill="#2569B2" d="M162.481,89.246c-1.563,1.907-3.217,3.358-5.057,4.435c-0.403,0.234-0.81,0.456-1.226,0.657
		c1.942,1.048,4.062,1.748,6.437,2.029l0,0l0,0c0.348,0.034,0.691,0.066,1.052,0.092h0.063c0.162,0,0.333,0,0.507,0.031h0.07
		c0.173,0,0.348,0,0.518,0c0.187,0,0.372,0,0.559,0c0.06,0,0.116,0,0.174,0c0.126,0,0.263,0,0.396,0c0.063,0,0.13,0,0.193-0.031
		c0.123,0,0.253,0,0.38-0.031c0.031,0,0.031,0,0.044,0c0.051,0,0.095,0,0.143,0c0.13,0,0.272-0.031,0.411-0.045h0.032
		c0.042,0,0.085-0.031,0.126-0.031c0.146-0.031,0.298-0.045,0.439-0.067c0.048,0,0.082,0,0.13,0c0.161-0.031,0.328-0.05,0.494-0.081
		h0.031c0.031,0,0.035,0,0.049,0c0.332-0.063,0.656-0.127,0.984-0.209c-2.722-0.998-5-3.347-6.963-6.694"/>
	<path id="path13105" fill="#285DA9" d="M123.592,96.49c1.974,0,3.967-0.192,5.97-0.577c1.852-0.336,3.707-0.851,5.566-1.5
		c1.547,0.756,3.169,1.317,4.887,1.666c1.333,0.272,2.717,0.411,4.169,0.411H123.592z"/>
	<path id="path13109" fill="#285DA9" d="M144.184,96.49c4.875,0,8.735-0.577,12.016-2.151c1.942,1.048,4.062,1.748,6.437,2.029l0,0
		l0,0c0.348,0.034,0.692,0.066,1.052,0.092h0.063c0.162,0,0.333,0,0.507,0.031h0.073c0.174,0,0.348,0,0.518,0H144.17L144.184,96.49z
		"/>
	<path id="path13113" fill="#2860AB" d="M164.861,96.49c0.189,0,0.376,0,0.562,0c0.055,0,0.118,0,0.175,0c0.126,0,0.256,0,0.392,0
		c0.066,0,0.13,0,0.193-0.031c0.123,0,0.253,0,0.384-0.031c0.031,0,0.031,0,0.041,0c0.051,0,0.099,0,0.146,0
		c0.13,0,0.272-0.031,0.408-0.044c0,0,0.031,0,0.034,0c0.041,0,0.083-0.031,0.123-0.031c0.146-0.031,0.298-0.044,0.439-0.066
		c0.048,0,0.085,0,0.136-0.031c0.162-0.031,0.329-0.048,0.495-0.08h0.031c0.031,0,0.034,0,0.048,0
		c0.332-0.063,0.656-0.126,0.985-0.209l0,0c0.953,0.353,1.946,0.531,3.019,0.531l-7.604,0.031L164.861,96.49z"/>
	<path id="path13117" fill="#1C60AB" d="M158.15,79.186v-0.031c-2.172,2.077-4.34,3.979-6.504,5.701
		c-1.131,0.897-2.259,1.749-3.398,2.552c0.954,1.14,1.923,2.208,2.944,3.181c1.551,1.503,3.208,2.77,5.016,3.746
		c0.412-0.202,0.823-0.424,1.223-0.657c1.844-1.075,3.497-2.527,5.06-4.434c-1.618-2.762-3.038-6.185-4.332-10.062"/>
	<g>
		
			<linearGradient id="path12339_1_" gradientUnits="userSpaceOnUse" x1="2.707" y1="101.7686" x2="3.4909" y2="101.7686" gradientTransform="matrix(0 149.7346 149.7346 0 -15130.875 -402.875)">
			<stop  offset="0" style="stop-color:#2492D1"/>
			<stop  offset="0.35" style="stop-color:#6CC9F0"/>
			<stop  offset="0.35" style="stop-color:#6CC9F0"/>
			<stop  offset="0.8462" style="stop-color:#2179BE"/>
			<stop  offset="0.8462" style="stop-color:#2179BE"/>
			<stop  offset="1" style="stop-color:#2179BE"/>
		</linearGradient>
		<path id="path12339" fill="url(#path12339_1_)" d="M85.441,21.013c8.866,27.112,12.225,75.476,38.149,75.476l0,0
			c1.974,0,3.968-0.192,5.971-0.573l0,0c-23.568-5.495-26.361-53.333-40.742-78.107l0,0C87.692,18.833,86.573,19.901,85.441,21.013"
			/>
		
			<linearGradient id="path12367_1_" gradientUnits="userSpaceOnUse" x1="2.6699" y1="101.7402" x2="3.4536" y2="101.7402" gradientTransform="matrix(0 153.5506 153.5506 0 -15510.5 -410.5)">
			<stop  offset="0" style="stop-color:#1577BC"/>
			<stop  offset="0.36" style="stop-color:#3EADE3"/>
			<stop  offset="0.36" style="stop-color:#3EADE3"/>
			<stop  offset="0.8462" style="stop-color:#2BAAE2"/>
			<stop  offset="0.8462" style="stop-color:#2BAAE2"/>
			<stop  offset="1" style="stop-color:#2BAAE2"/>
		</linearGradient>
		<path id="path12367" fill="url(#path12367_1_)" d="M88.82,17.809c14.381,24.773,17.174,72.612,40.742,78.107l0,0
			c1.851-0.34,3.706-0.854,5.565-1.503l0,0c-21.153-10.366-27.001-56.82-43.332-79.184l0,0
			C90.806,16.052,89.813,16.915,88.82,17.809"/>
		<path id="path12379" fill="#18569B" d="M109.541,3.076c-1.971,0-3.968,0.193-5.974,0.573c-5.246,0.989-10.575,3.248-15.947,6.666
			c1.467,1.448,2.864,3.105,4.177,4.914c5.463-4.534,10.892-7.885,16.3-9.899c2.03-0.751,4.051-1.317,6.081-1.689
			C112.713,3.269,111.17,3.076,109.541,3.076"/>
		
			<linearGradient id="path12459_1_" gradientUnits="userSpaceOnUse" x1="-0.8857" y1="100.123" x2="-0.102" y2="100.123" gradientTransform="matrix(0 -122.178 -122.178 0 12368.875 -14.4375)">
			<stop  offset="0" style="stop-color:#2863AD"/>
			<stop  offset="0.5" style="stop-color:#3DBCEE"/>
			<stop  offset="1" style="stop-color:#3DBCEE;stop-opacity:0.4196"/>
		</linearGradient>
		<path id="path12459" fill="url(#path12459_1_)" d="M151.64,84.858c2.165-1.722,4.333-3.624,6.504-5.701
			c-9.008-26.985-12.233-76.042-38.34-76.042c-1.867,0-3.75,0.174-5.629,0.522C137.956,9.552,141.002,61.291,151.64,84.858"/>
		<path id="path12521" fill="#3192C4" d="M114.176,3.64c-1.463-0.372-3.006-0.565-4.637-0.565l10.267,0.037
			c-1.867,0-3.75,0.174-5.63,0.527"/>
		
			<linearGradient id="path12553_1_" gradientUnits="userSpaceOnUse" x1="2.6294" y1="101.6836" x2="3.4131" y2="101.6836" gradientTransform="matrix(0 159.4252 159.4252 0 -16081 -432)">
			<stop  offset="0" style="stop-color:#1D6AB3"/>
			<stop  offset="0.4" style="stop-color:#3EADE3"/>
			<stop  offset="0.4" style="stop-color:#3EADE3"/>
			<stop  offset="0.8462" style="stop-color:#1E96D4"/>
			<stop  offset="0.8462" style="stop-color:#1E96D4"/>
			<stop  offset="1" style="stop-color:#1E96D4"/>
		</linearGradient>
		<path id="path12553" fill="url(#path12553_1_)" d="M108.095,5.335c21.3,11.141,23.152,61.59,40.147,82.075l0,0
			c1.14-0.803,2.267-1.653,3.394-2.552l0,0c-10.638-23.567-13.681-75.311-37.457-81.221l0,0
			C112.15,4.017,110.124,4.58,108.095,5.335"/>
		
			<linearGradient id="path12581_1_" gradientUnits="userSpaceOnUse" x1="2.5312" y1="101.6602" x2="3.3149" y2="101.6602" gradientTransform="matrix(0 169.5276 169.5276 0 -17113.875 -441.125)">
			<stop  offset="0" style="stop-color:#134479"/>
			<stop  offset="0.39" style="stop-color:#1B87C9"/>
			<stop  offset="0.39" style="stop-color:#1B87C9"/>
			<stop  offset="0.7802" style="stop-color:#165298"/>
			<stop  offset="0.7802" style="stop-color:#165298"/>
			<stop  offset="1" style="stop-color:#165298"/>
		</linearGradient>
		<path id="path12581" fill="url(#path12581_1_)" d="M91.795,15.229c16.331,22.364,22.179,68.818,43.332,79.184l0,0
			c4.348-1.536,8.724-3.894,13.115-7.003l0,0c-16.996-20.485-18.848-70.935-40.147-82.075l0,0
			C102.687,7.345,97.258,10.695,91.795,15.229"/>
		
			<linearGradient id="path12651_1_" gradientUnits="userSpaceOnUse" x1="991.0156" y1="-2029.4517" x2="995.667" y2="-2029.4517" gradientTransform="matrix(4.0385 0 0 -4.0385 -3935.5781 -8167.2422)">
			<stop  offset="0" style="stop-color:#3DBCEE;stop-opacity:0.698"/>
			<stop  offset="1" style="stop-color:#23ADD9"/>
		</linearGradient>
		<path id="path12651" fill="url(#path12651_1_)" d="M74.993,20.36c-2.56,5.788-5.175,13.396-8.336,23.326
			c6.287-8.858,12.553-16.489,18.784-22.673c-0.858-2.639-1.78-5.072-2.773-7.24C80.12,15.724,77.552,17.92,74.993,20.36"/>
		<path id="path12655" fill="#2B75B2" d="M84.938,12.104c-0.751,0.538-1.507,1.088-2.267,1.67c0.993,2.167,1.911,4.601,2.77,7.24
			c1.131-1.108,2.254-2.181,3.378-3.205C87.611,15.736,86.33,13.821,84.938,12.104"/>
		<path id="path12659" fill="#155B9F" d="M87.619,10.315c-0.895,0.566-1.784,1.163-2.683,1.788c1.393,1.717,2.675,3.631,3.885,5.709
			c0.993-0.898,1.986-1.765,2.975-2.583C90.483,13.421,89.087,11.763,87.619,10.315"/>
		
			<linearGradient id="path12803_1_" gradientUnits="userSpaceOnUse" x1="974.5107" y1="-2034.9707" x2="991.7627" y2="-2034.9707" gradientTransform="matrix(4.0385 0 0 -4.0385 -3935.5781 -8167.2422)">
			<stop  offset="0" style="stop-color:#289FDA;stop-opacity:0.2471"/>
			<stop  offset="1" style="stop-color:#289FDA"/>
		</linearGradient>
		<path id="path12803" fill="url(#path12803_1_)" d="M62.313,4.96c0.013,0,0.028-0.031,0.036-0.031c0.016,0,0.041,0,0.048-0.031
			c0,0,0.016,0,0.025,0c0.111-0.038,0.213-0.082,0.324-0.124c0.028,0,0.043,0,0.063-0.031c0.028,0,0.056-0.031,0.083-0.035
			c0.119-0.038,0.237-0.083,0.348-0.123c0,0,0.012,0,0.019,0c0.265-0.08,0.51-0.178,0.768-0.27c0.036,0,0.071-0.031,0.115-0.031
			c0.106-0.035,0.218-0.073,0.328-0.098c0.052-0.031,0.103-0.031,0.15-0.048c0.115-0.034,0.226-0.073,0.332-0.098
			c0.048,0,0.091-0.032,0.127-0.035c0.368-0.101,0.732-0.196,1.1-0.285c0.052,0,0.095-0.031,0.15-0.034
			c0.107-0.032,0.206-0.048,0.32-0.064c0.048-0.031,0.103-0.031,0.159-0.048c0.106-0.032,0.209-0.035,0.324-0.06
			c0.028,0,0.043,0,0.075,0c0.221-0.045,0.447-0.083,0.669-0.124c0.04,0,0.09,0,0.134,0c0.106-0.032,0.202-0.035,0.309-0.054
			c0.059,0,0.119-0.031,0.174-0.031c0.099,0,0.198-0.032,0.296-0.045c0.052,0,0.103,0,0.163-0.031
			c0.233-0.031,0.475-0.044,0.72-0.063c-0.692-0.067-1.405-0.11-2.128-0.11C45.018,3.056,13.981,44.853,0,98.98c0,0,1.021,0,2.694,0
			c4.475-7.979,8.495-15.527,12.169-22.612c9.792-38.34,29.735-64.487,47.451-71.414"/>
		<path id="path12807" fill="#1981C5" d="M74.993,20.36c2.56-2.44,5.127-4.636,7.675-6.587c-0.582-1.273-1.183-2.453-1.828-3.533
			C78.779,12.741,76.896,16.04,74.993,20.36"/>
		<path id="path12811" fill="#1981C5" d="M76.843,5.277c1.472,1.234,2.789,2.932,3.996,4.965c0.38-0.467,0.764-0.898,1.164-1.302
			c-1.673-1.562-3.481-2.845-5.444-3.81c0.079,0.043,0.158,0.079,0.24,0.114C76.799,5.245,76.83,5.277,76.843,5.277"/>
		<path id="path12843" fill="#2179BE" d="M82.001,8.94c-0.399,0.407-0.779,0.835-1.164,1.302c0.646,1.08,1.247,2.254,1.833,3.533
			c0.759-0.582,1.515-1.132,2.267-1.67C84.007,10.958,83.025,9.894,82.001,8.94"/>
		
			<linearGradient id="path12949_1_" gradientUnits="userSpaceOnUse" x1="-1.2881" y1="99.6895" x2="-0.5044" y2="99.6895" gradientTransform="matrix(0 -100.1002 -100.1002 0 10028.625 -30.125)">
			<stop  offset="0" style="stop-color:#1D5AA6"/>
			<stop  offset="0.5" style="stop-color:#289FDA"/>
			<stop  offset="0.5" style="stop-color:#289FDA"/>
			<stop  offset="0.9176" style="stop-color:#80C5EA"/>
			<stop  offset="1" style="stop-color:#80C5EA"/>
		</linearGradient>
		<path id="path12949" fill="url(#path12949_1_)" d="M24.188,98.8L24.188,98.8c5.531-0.704,11.979-3.995,16.22-11.888l0,0
			c8.795-16.363,17.546-30.978,26.246-43.234l0,0c3.165-9.935,5.776-17.537,8.339-23.325l0,0
			c-17.34,16.505-34.747,43.949-50.805,78.44"/>
		
			<linearGradient id="path12981_1_" gradientUnits="userSpaceOnUse" x1="-1.2642" y1="100.1992" x2="-0.4805" y2="100.1992" gradientTransform="matrix(-19.138 -108.5369 -108.5369 19.138 10903.75 -1960.9375)">
			<stop  offset="0" style="stop-color:#195197"/>
			<stop  offset="1" style="stop-color:#1981C5"/>
		</linearGradient>
		<path id="path12981" fill="url(#path12981_1_)" d="M68.952,3.25c-0.063,0-0.111,0.031-0.167,0.031l0,0
			c-0.095,0.032-0.194,0.032-0.293,0.042l0,0c-0.059,0-0.115,0-0.174,0.031l0,0c-0.107,0.032-0.206,0.035-0.309,0.055l0,0
			c-0.048,0-0.095,0-0.135,0.031l0,0c-0.225,0.038-0.447,0.079-0.668,0.117l0,0c-0.039,0-0.052,0-0.075,0l0,0
			c-0.115,0.031-0.218,0.047-0.324,0.063l0,0c-0.056,0.031-0.111,0.031-0.163,0.043l0,0c-0.107,0.031-0.213,0.045-0.316,0.063l0,0
			c-0.056,0.031-0.099,0.031-0.15,0.035l0,0c-0.368,0.089-0.732,0.184-1.1,0.285l0,0c-0.039,0-0.079,0.031-0.126,0.038l0,0
			c-0.11,0.031-0.217,0.063-0.332,0.098l0,0c-0.048,0.031-0.103,0.031-0.15,0.043l0,0c-0.111,0.031-0.222,0.063-0.329,0.098l0,0
			c-0.043,0-0.079,0.031-0.119,0.031l0,0c-0.253,0.095-0.502,0.19-0.764,0.27l0,0l0,0l0,0c-0.11,0.034-0.229,0.079-0.348,0.12l0,0
			c-0.048,0.031-0.091,0.038-0.146,0.061l0,0c-0.111,0.034-0.222,0.079-0.324,0.12l0,0c-0.04,0.031-0.079,0.034-0.107,0.051l0,0
			c-17.178,6.781-26.91,31.832-47.451,71.413l0,0C13.059,83.52,11.583,91.076,10.55,99l0,0h1.1c3.098,0,3.972-0.031,7.536-0.031l0,0
			h0.182h0.53h0.182h0.052h0.182h0.103h0.071h0.142h0.443h0.443h0.372h0.099c0.213,0,0.431,0,0.653,0l0,0
			c0.245-0.031,0.498-0.031,0.755-0.051l0,0c0,0,0.04,0,0.048,0l0,0c0.107,0,0.213-0.031,0.316-0.031l0,0c0.04,0,0.043,0,0.075,0
			l0,0c0.114,0,0.245-0.031,0.372-0.045l0,0l0,0c16.058-34.49,33.466-61.934,50.806-78.44l0,0c1.907-4.319,3.786-7.62,5.843-10.115
			l0,0c-1.203-2.034-2.52-3.735-3.992-4.969l0,0c0,0-0.04,0-0.042-0.032l0,0c-0.083-0.034-0.163-0.076-0.246-0.117l0,0
			c-0.083-0.045-0.154-0.08-0.241-0.124l0,0c-0.075-0.032-0.162-0.073-0.237-0.114l0,0c-0.103-0.031-0.186-0.076-0.277-0.117l0,0
			c-0.075-0.031-0.143-0.063-0.218-0.095l0,0c-0.154-0.061-0.309-0.123-0.455-0.19l0,0c-0.068-0.031-0.131-0.047-0.194-0.073l0,0
			c-0.106-0.038-0.229-0.088-0.34-0.136l0,0c-0.056-0.031-0.119-0.037-0.182-0.06l0,0c-0.162-0.054-0.32-0.111-0.471-0.162l0,0
			c-0.04,0-0.04,0-0.04,0l0,0c-0.182-0.061-0.36-0.104-0.546-0.155l0,0c-0.043-0.031-0.079-0.031-0.122-0.038l0,0
			c-0.163-0.044-0.305-0.088-0.459-0.129l0,0c-0.039,0-0.075-0.031-0.106-0.031l0,0c-0.372-0.098-0.756-0.178-1.143-0.25l0,0
			c-0.041,0-0.08-0.031-0.119-0.031l0,0c-0.167-0.031-0.329-0.061-0.495-0.079l0,0c-0.04-0.031-0.063-0.031-0.099-0.031l0,0
			c-0.198-0.031-0.392-0.054-0.586-0.077l0,0c-0.039,0-0.067,0-0.103,0l0,0c-0.158-0.031-0.304-0.034-0.451-0.05l0,0
			c-0.25,0.031-0.487,0.044-0.72,0.066"/>
		
			<linearGradient id="path13003_1_" gradientUnits="userSpaceOnUse" x1="-3.2959" y1="99.3799" x2="-2.512" y2="99.3799" gradientTransform="matrix(0 -56.7206 -56.7206 0 5828.6875 -141.25)">
			<stop  offset="0" style="stop-color:#289FDA"/>
			<stop  offset="0.8736" style="stop-color:#1394D3"/>
			<stop  offset="1" style="stop-color:#1394D3"/>
		</linearGradient>
		<path id="path13003" fill="url(#path13003_1_)" d="M185.85,26.73c-3.952,12.659-7.153,23.104-9.938,31.696l0,0
			c10.844-14.923,21.525-33.695,31.697-55.359l0,0C195.743,6.794,189.414,15.325,185.85,26.73"/>
		
			<linearGradient id="path13139_1_" gradientUnits="userSpaceOnUse" x1="3.0688" y1="101.7314" x2="3.8528" y2="101.7314" gradientTransform="matrix(0 123.7424 123.7424 0 -12392.0625 -379.125)">
			<stop  offset="0" style="stop-color:#238BCB"/>
			<stop  offset="0.5" style="stop-color:#2387C9"/>
			<stop  offset="1" style="stop-color:#154C8E"/>
		</linearGradient>
		<path id="path13139" fill="url(#path13139_1_)" d="M222.733,1.011h-10.263c-0.345,0-0.685,0-1.021,0l0,0c-0.328,0-0.645,0-0.965,0
			l0,0h-0.038c-0.664,0.031-1.309,0.054-1.946,0.095l0,0c-0.301,0.646-0.609,1.291-0.906,1.939l0,0
			c-10.171,21.664-20.853,40.436-31.697,55.358l0,0c-5.099,15.694-8.842,25.218-13.431,30.819l0,0
			c1.962,3.347,4.245,5.7,6.959,6.697l0,0c0.079-0.031,0.143-0.031,0.213-0.048l0,0c0,0,0.039,0,0.044,0l0,0
			c0.049,0,0.1-0.031,0.15-0.031l0,0c0.111-0.031,0.23-0.051,0.341-0.085l0,0c0.07-0.031,0.13-0.034,0.201-0.058l0,0
			c0.104-0.031,0.21-0.054,0.305-0.079l0,0c0.063-0.031,0.127-0.042,0.19-0.054l0,0c0.158-0.052,0.301-0.089,0.45-0.137l0,0
			c0.072-0.031,0.147-0.057,0.226-0.075l0,0c0.088-0.031,0.174-0.055,0.254-0.092l0,0c0.091-0.031,0.182-0.049,0.262-0.083l0,0
			c0.07-0.031,0.146-0.051,0.213-0.079l0,0c0.178-0.063,0.352-0.117,0.53-0.187l0,0c0.048,0,0.095-0.044,0.146-0.055l0,0
			c0.107-0.044,0.219-0.078,0.325-0.126l0,0c0.04-0.031,0.087-0.034,0.139-0.051l0,0c0.372-0.155,0.755-0.313,1.14-0.486l0,0h0.039
			l0,0c0.547-0.241,1.1-0.511,1.65-0.791l0,0c17.633-9.852,26.534-42.949,54.212-92.39l0,0h-7.73L222.733,1.011z"/>
		<path id="path13231" fill="#7ECBEC" d="M69.673,3.184c0.044,0,0.083,0,0.126,0.031c0.107,0,0.213,0,0.321,0.035
			c0.04,0,0.075,0,0.106,0c0.194,0.031,0.388,0.047,0.585,0.076c0.036,0,0.067,0,0.099,0.031c0.162,0.031,0.328,0.058,0.494,0.083
			c0.036,0,0.083,0.032,0.123,0.032c0.38,0.076,0.768,0.154,1.139,0.252c0.036,0,0.071,0.031,0.103,0.031
			c0.158,0.038,0.3,0.086,0.459,0.13c0.048,0,0.083,0.032,0.126,0.039c0.186,0.048,0.36,0.095,0.542,0.155
			c0.008,0,0.019,0,0.04,0.031c0.154,0.047,0.312,0.107,0.475,0.162c0.063,0.031,0.123,0.044,0.182,0.06
			c0.111,0.048,0.233,0.095,0.34,0.14c0.063,0,0.126,0.044,0.193,0.066c0.146,0.066,0.301,0.127,0.451,0.19
			c0.079,0.031,0.146,0.067,0.221,0.095c0.087,0.044,0.179,0.085,0.273,0.117c0.079,0.038,0.166,0.079,0.241,0.113
			c0.083,0.045,0.162,0.08,0.241,0.124c1.962,0.965,3.771,2.251,5.444,3.81c0.617-0.649,1.262-1.231,1.931-1.753
			c-3.66-2.595-7.806-4.075-12.589-4.075c-0.554,0-1.107,0.031-1.669,0.074"/>
		<path id="path13235" fill="#60C5ED" d="M82.001,8.94c1.024,0.953,2.006,2.017,2.936,3.165c0.898-0.625,1.788-1.226,2.682-1.788
			c-1.171-1.171-2.405-2.224-3.691-3.13C83.259,7.706,82.618,8.292,82.001,8.94"/>
		<g id="g13243" transform="matrix(5.0481458,0,0,-5.0481458,-9064.2597,2270.6096)">
			
				<linearGradient id="path13245_1_" gradientUnits="userSpaceOnUse" x1="1797.1309" y1="430.9987" x2="1797.9147" y2="430.9987" gradientTransform="matrix(28.5033 -11.8223 -11.8223 -28.5033 -44318.7227 33981.2188)">
				<stop  offset="0" style="stop-color:#98D5ED"/>
				<stop  offset="0.7033" style="stop-color:#56C1EB"/>
				<stop  offset="1" style="stop-color:#56C1EB"/>
			</linearGradient>
			<path id="path13245" fill="url(#path13245_1_)" d="M1809.364,449.16c0.111,0.009,0.221,0.013,0.331,0.013
				c0.948,0,1.769-0.293,2.494-0.806c0.765,0.603,1.69,0.814,2.974,0.814h-6.22C1809.085,449.182,1809.226,449.173,1809.364,449.16"
				/>
		</g>
		<g id="g13253" transform="matrix(5.0481458,0,0,-5.0481458,-9064.2597,2270.6096)">
			
				<linearGradient id="path13255_1_" gradientUnits="userSpaceOnUse" x1="1795.8055" y1="432.0348" x2="1796.5892" y2="432.0348" gradientTransform="matrix(22.5118 10.2054 10.2054 -22.5118 -43023.4258 -8153.1113)">
				<stop  offset="0" style="stop-color:#7CCDEC"/>
				<stop  offset="1" style="stop-color:#44B6E9"/>
			</linearGradient>
			<path id="path13255" fill="url(#path13255_1_)" d="M1815.162,449.182c-1.284,0-2.209-0.211-2.974-0.814
				c0.254-0.18,0.498-0.388,0.73-0.62c1.065,0.677,2.12,1.125,3.16,1.321c0.397,0.074,0.792,0.113,1.183,0.113H1815.162
				L1815.162,449.182z"/>
		</g>
		
			<linearGradient id="path13333_1_" gradientUnits="userSpaceOnUse" x1="3.104" y1="101.7783" x2="3.8874" y2="101.7783" gradientTransform="matrix(0 121.0325 121.0325 0 -12135.125 -369.5)">
			<stop  offset="0" style="stop-color:#2FA6DF"/>
			<stop  offset="1" style="stop-color:#40A9E0;stop-opacity:0"/>
		</linearGradient>
		<path id="path13333" fill="url(#path13333_1_)" d="M175.912,58.435c2.789-8.601,5.981-19.041,9.942-31.705
			c3.567-11.41,9.886-19.939,21.75-23.662c0.313-0.637,0.609-1.294,0.914-1.938c-19.342,1.159-28.382,10.998-32.932,25.569
			c-7.955,25.438-12.774,41.928-17.415,52.436C164.099,73.468,170.024,66.514,175.912,58.435"/>
	</g>
</g>
</svg>
