<?xml version="1.0" encoding="utf-8"?>
<!-- Generator: Adobe Illustrator 16.0.0, SVG Export Plug-In . SVG Version: 6.00 Build 0)  -->
<!DOCTYPE svg PUBLIC "-//W3C//DTD SVG 1.1//EN" "http://www.w3.org/Graphics/SVG/1.1/DTD/svg11.dtd">
<svg version="1.1" id="Calque_1" xmlns="http://www.w3.org/2000/svg" xmlns:xlink="http://www.w3.org/1999/xlink" x="0px" y="0px"
	 width="381.049px" height="100px" viewBox="0 0 381.049 100" enable-background="new 0 0 381.049 100" xml:space="preserve">
<g>
	<g>
		<polygon fill="#CDCCCC" points="97.949,71.756 97.949,32.509 103.026,32.509 127.043,64.125 127.043,32.509 131.845,32.509 
			131.845,71.756 126.768,71.756 102.753,39.862 102.753,71.756 		"/>
		<path fill="#CDCCCC" d="M170.817,70.22c-3.165,1.21-6.579,1.812-10.238,1.812c-14.215,0-21.326-6.814-21.326-20.447
			c0-12.9,6.862-19.351,20.583-19.351c3.937,0,7.597,0.55,10.98,1.649v4.391c-3.383-1.281-6.862-1.922-10.432-1.922
			c-10.702,0-16.052,5.08-16.052,15.232c0,10.887,5.266,16.332,15.809,16.332c1.682,0,3.547-0.221,5.598-0.661V53.918h5.077V70.22
			L170.817,70.22z"/>
		<path fill="#CDCCCC" d="M178.915,56.606V32.51h5.074v24.096c0,7.538,3.752,11.312,11.255,11.312
			c7.501,0,11.253-3.773,11.253-11.312V32.51h5.077v24.096c0,10.286-5.444,15.427-16.33,15.427S178.915,66.893,178.915,56.606z"/>
		<polygon fill="#CDCCCC" points="225.708,32.509 225.708,67.641 246.241,67.641 246.241,71.756 220.633,71.756 220.633,32.509 		
			"/>
		<polygon fill="#CDCCCC" points="253.566,71.758 248.298,71.758 267.811,27.332 287.324,71.758 281.699,71.758 276.619,59.405 
			263.643,59.405 265.04,55.293 274.921,55.293 267.593,37.505 		"/>
		<path fill="#CDCCCC" d="M292.678,71.756V32.509h16.742c7.467,0,11.197,3.139,11.197,9.413c0,5.107-3.647,8.886-10.949,11.334
			l13.475,18.5h-6.696L303.96,54.109v-3.318c7.501-1.192,11.251-4.074,11.251-8.646c0-3.622-2.086-5.436-6.256-5.436h-11.201v35.05
			h-5.076V71.756L292.678,71.756z"/>
		<path fill="#CDCCCC" d="M342.164,32.509v27.94c0,7.539-4.438,11.307-13.313,11.307v-4.115c5.489,0,8.235-2.4,8.235-7.191v-27.94
			H342.164z"/>
		<path fill="#CDCCCC" d="M351.221,70.385v-4.667c4.119,1.464,8.564,2.198,13.34,2.198c6.752,0,10.129-2.471,10.129-7.415
			c0-4.202-2.49-6.312-7.467-6.312h-5.053c-8.213,0-12.324-3.565-12.324-10.702c0-7.501,5.264-11.256,15.787-11.256
			c4.574,0,8.826,0.553,12.762,1.65v4.666c-3.936-1.465-8.188-2.197-12.762-2.197c-7.137,0-10.705,2.379-10.705,7.137
			c0,4.206,2.414,6.311,7.242,6.311h5.053c8.359,0,12.543,3.57,12.543,10.702c0,7.688-5.066,11.53-15.205,11.53
			C359.785,72.031,355.34,71.48,351.221,70.385z"/>
		<polygon fill="#010202" points="99.233,70.475 99.233,31.227 104.31,31.227 128.325,62.844 128.325,31.227 133.129,31.227 
			133.129,70.475 128.052,70.475 104.035,38.58 104.035,70.475 		"/>
		<path fill="#010202" d="M172.102,68.938c-3.164,1.209-6.577,1.812-10.237,1.812c-14.216,0-21.325-6.815-21.325-20.447
			c0-12.9,6.861-19.352,20.585-19.352c3.934,0,7.594,0.551,10.977,1.649v4.391c-3.383-1.281-6.862-1.922-10.429-1.922
			c-10.703,0-16.054,5.08-16.054,15.232c0,10.887,5.268,16.332,15.808,16.332c1.682,0,3.55-0.219,5.601-0.66V52.634h5.075
			L172.102,68.938L172.102,68.938z"/>
		<path fill="#010202" d="M180.198,55.323V31.225h5.074v24.098c0,7.538,3.752,11.311,11.256,11.311
			c7.5,0,11.252-3.773,11.252-11.311V31.225h5.077v24.098c0,10.287-5.443,15.426-16.329,15.426
			C185.641,70.748,180.198,65.609,180.198,55.323z"/>
		<polygon fill="#010202" points="226.992,31.225 226.992,66.357 247.523,66.357 247.523,70.473 221.917,70.473 221.917,31.225 		
			"/>
		<polygon fill="#010202" points="254.852,70.475 249.582,70.475 269.096,26.046 288.609,70.475 282.98,70.475 277.904,58.122 
			264.924,58.122 266.325,54.007 276.203,54.007 268.877,36.219 		"/>
		<path fill="#010202" d="M293.961,70.475V31.227h16.742c7.467,0,11.196,3.137,11.196,9.414c0,5.104-3.646,8.885-10.948,11.334
			l13.477,18.5h-6.7l-12.483-17.647v-3.322c7.5-1.192,11.252-4.071,11.252-8.646c0-3.622-2.088-5.433-6.26-5.433h-11.197v35.049
			H293.961z"/>
		<path fill="#A61916" d="M343.449,31.225v27.941c0,7.539-4.438,11.307-13.314,11.307v-4.115c5.49,0,8.236-2.4,8.236-7.191V31.225
			H343.449z"/>
		<path fill="#A61916" d="M352.504,69.1v-4.666c4.119,1.463,8.562,2.199,13.34,2.199c6.752,0,10.129-2.473,10.129-7.414
			c0-4.204-2.49-6.311-7.467-6.311h-5.053c-8.213,0-12.324-3.568-12.324-10.705c0-7.501,5.262-11.255,15.787-11.255
			c4.572,0,8.826,0.553,12.762,1.65v4.667c-3.938-1.466-8.189-2.198-12.762-2.198c-7.137,0-10.705,2.38-10.705,7.137
			c0,4.207,2.412,6.311,7.242,6.311h5.053c8.357,0,12.543,3.569,12.543,10.704c0,7.686-5.068,11.529-15.207,11.529
			C361.068,70.748,356.621,70.196,352.504,69.1z"/>
		<path fill="#010202" d="M305.607,91.424l-1.864-5.668h-1.326l2.573,7.162c-0.061,0.156-0.158,0.393-0.291,0.714
			c-0.135,0.32-0.213,0.496-0.233,0.531c-0.069,0.104-0.155,0.191-0.257,0.263c-0.104,0.072-0.261,0.107-0.477,0.107
			c-0.068,0-0.15-0.008-0.24-0.02c-0.091-0.013-0.238-0.048-0.441-0.104v1.066c0.13,0.035,0.24,0.058,0.328,0.071
			c0.088,0.013,0.216,0.019,0.381,0.019c0.675,0,1.15-0.194,1.427-0.584c0.277-0.39,0.753-1.472,1.429-3.245
			c0.286-0.754,0.641-1.73,1.064-2.924c0.567-1.592,0.934-2.609,1.098-3.057h-1.293L305.607,91.424z M298.686,91.901
			c-0.844,0-1.42-0.383-1.729-1.149c-0.164-0.407-0.246-0.938-0.246-1.592c0-0.904,0.2-1.554,0.604-1.949
			c0.402-0.393,0.869-0.59,1.404-0.59c0.611,0,1.076,0.24,1.391,0.721c0.316,0.48,0.474,1.087,0.474,1.818
			c0,0.824-0.157,1.486-0.474,1.988C299.795,91.65,299.318,91.901,298.686,91.901z M295.638,92.713h1.079v-0.889
			c0.246,0.334,0.479,0.576,0.697,0.728c0.364,0.256,0.812,0.384,1.344,0.384c0.947,0,1.688-0.364,2.224-1.093
			c0.535-0.728,0.802-1.641,0.802-2.74c0-1.161-0.27-2.039-0.812-2.634c-0.541-0.596-1.246-0.894-2.115-0.894
			c-0.418,0-0.805,0.087-1.162,0.263c-0.355,0.176-0.662,0.43-0.918,0.764v-3.463h-1.138V92.713L295.638,92.713z"/>
	</g>
	<g>
		<polygon fill="#B4B4B4" points="45.838,1 0,17.131 7.244,77.187 45.887,98.426 84.729,76.898 91.97,16.846 		"/>
		<polygon fill="#A61916" points="87.397,20.317 45.731,6.107 45.731,93.351 80.649,74.025 		"/>
		<polygon fill="#DE1E19" points="5.144,20.573 11.351,74.283 45.73,93.351 45.73,6.106 		"/>
		<path fill="#F2F2F2" d="M57.2,52.552l-11.469,5.363H33.643L27.96,72.128l-10.57,0.196L45.731,9.276L57.2,52.552z M56.092,49.852
			l-10.285-20.36l-8.436,20.01h8.359L56.092,49.852z"/>
		<polygon fill="#B4B4B4" points="45.73,9.276 45.806,29.491 55.379,49.517 45.752,49.517 45.73,57.902 59.042,57.915 
			65.263,72.326 75.376,72.514 		"/>
	</g>
	<path fill="#010202" d="M361.775,83.023c0.504,0.419,1.561,1.298,1.561,2.971c0,1.629-0.924,2.399-1.848,3.125
		c-0.287,0.285-0.617,0.595-0.617,1.079c0,0.483,0.33,0.747,0.572,0.946l0.793,0.615c0.969,0.814,1.848,1.562,1.848,3.082
		c0,2.068-2.004,4.158-5.787,4.158c-3.191,0-4.73-1.518-4.73-3.147c0-0.793,0.395-1.914,1.693-2.685
		c1.363-0.836,3.213-0.945,4.203-1.014c-0.309-0.395-0.66-0.812-0.66-1.494c0-0.374,0.109-0.596,0.221-0.859
		c-0.242,0.021-0.484,0.043-0.705,0.043c-2.332,0-3.652-1.738-3.652-3.454c0-1.013,0.463-2.136,1.408-2.949
		c1.254-1.034,2.75-1.21,3.939-1.21h4.533l-1.41,0.791h-1.361 M360.211,92.795c-0.176-0.023-0.285-0.023-0.504-0.023
		c-0.199,0-1.389,0.045-2.312,0.354c-0.484,0.176-1.893,0.703-1.893,2.266s1.518,2.686,3.873,2.686c2.113,0,3.236-1.015,3.236-2.376
		C362.611,94.575,361.885,93.983,360.211,92.795z M360.85,88.613c0.506-0.508,0.549-1.211,0.549-1.607
		c0-1.584-0.945-4.049-2.771-4.049c-0.572,0-1.189,0.286-1.541,0.727c-0.375,0.463-0.484,1.056-0.484,1.629
		c0,1.474,0.859,3.916,2.752,3.916C359.904,89.229,360.496,88.965,360.85,88.613z M347.92,92.441c-3.492,0-5.361-2.723-5.361-5.186
		c0-2.878,2.352-5.338,5.693-5.338c3.229,0,5.25,2.525,5.25,5.186C353.502,89.695,351.502,92.441,347.92,92.441 M350.666,90.662
		c0.529-0.703,0.66-1.581,0.66-2.439c0-1.934-0.922-5.624-3.648-5.624c-0.725,0-1.449,0.286-1.977,0.748
		c-0.857,0.769-1.012,1.735-1.012,2.681c0,2.174,1.078,5.755,3.736,5.755C349.283,91.782,350.162,91.365,350.666,90.662z
		 M336.012,92.441c-3.494,0-5.361-2.723-5.361-5.186c0-2.878,2.352-5.338,5.691-5.338c3.229,0,5.25,2.525,5.25,5.186
		C341.592,89.695,339.593,92.441,336.012,92.441 M338.758,90.662c0.527-0.703,0.659-1.581,0.659-2.439
		c0-1.934-0.923-5.624-3.647-5.624c-0.725,0-1.451,0.286-1.978,0.748c-0.857,0.769-1.011,1.735-1.011,2.681
		c0,2.174,1.076,5.755,3.735,5.755C337.375,91.782,338.254,91.365,338.758,90.662z M328.972,92.098v-2.695
		c0-0.221,0.021-0.861,0.044-1.061c0.044-0.175,0.065-0.221,0.221-0.354l0.574-0.551h-4.684l-1.766,0.949l3.334-0.176v3.555
		c-0.662,0.267-1.391,0.553-2.805,0.553c-4.814,0-7.82-3.91-7.82-8.061c0-3.865,2.629-6.518,6.119-6.518
		c2.605,0,3.977,1.348,4.727,2.074l-0.552,0.885l0.772-0.176l1.834-1.744c-0.486-0.332-1.259-0.906-2.916-1.371
		c-1.037-0.287-2.186-0.463-3.379-0.463c-5.633,0-8.924,3.975-8.924,8.26c0,3.514,2.318,7.997,8.416,7.997
		c1.214,0,2.362-0.176,3.644-0.375L328.972,92.098 M368.756,91.462c-0.729-0.066-0.883-0.198-0.883-1.06V77.898
		c0.004-0.047,0.01-0.096,0.014-0.143c0.088-0.771,0.309-0.904,0.994-1.303h-3.16l-1.656,0.795h1.689v0.011l-0.002-0.008v13.637
		c0,0.442-0.088,0.508-0.596,1.169h3.91l0.816-0.484C369.508,91.527,369.133,91.506,368.756,91.462 M377.744,91.665
		c-0.24,0.132-0.482,0.286-0.723,0.396c-0.725,0.329-1.471,0.416-2.129,0.416c-0.701,0-1.799-0.043-2.918-0.854
		c-1.557-1.098-2.238-2.983-2.238-4.63c0-3.399,2.766-5.066,5.023-5.066c0.791,0,1.604,0.197,2.262,0.614
		c1.096,0.724,1.381,1.667,1.535,2.171l-5.154,2.084l-1.691,0.132c0.549,2.786,2.436,4.409,4.52,4.409
		c1.119,0,1.932-0.395,2.676-0.768L377.744,91.665 M375.684,85.127c0.416-0.154,0.635-0.285,0.635-0.592
		c0-0.877-0.986-1.887-2.17-1.887c-0.879,0-2.523,0.68-2.523,3.049c0,0.373,0.043,0.768,0.066,1.163L375.684,85.127z"/>
</g>
</svg>
