<?xml version="1.0" encoding="utf-8"?>
<!-- Generator: Adobe Illustrator 16.0.0, SVG Export Plug-In . SVG Version: 6.00 Build 0)  -->
<!DOCTYPE svg PUBLIC "-//W3C//DTD SVG 1.1//EN" "http://www.w3.org/Graphics/SVG/1.1/DTD/svg11.dtd">
<svg version="1.1" id="Calque_1" xmlns="http://www.w3.org/2000/svg" xmlns:xlink="http://www.w3.org/1999/xlink" x="0px" y="0px"
	 width="69.43px" height="100px" viewBox="0 0 69.43 100" enable-background="new 0 0 69.43 100" xml:space="preserve">
<g>
	<polygon fill="#E54E27" points="6.319,91.129 0,20.259 69.43,20.259 63.104,91.118 34.672,99 	"/>
	<polygon fill="#EC662B" points="34.715,92.975 57.689,86.605 63.094,26.054 34.715,26.054 	"/>
	<polygon fill="#EBEBEB" points="34.715,52.339 23.213,52.339 22.419,43.438 34.715,43.438 34.715,34.746 34.684,34.746 
		12.92,34.746 13.128,37.078 15.264,61.03 34.715,61.03 	"/>
	<polygon fill="#EBEBEB" points="34.715,74.911 34.676,74.922 24.997,72.309 24.378,65.376 19.674,65.376 15.653,65.376 
		16.87,79.023 34.674,83.967 34.715,83.955 	"/>
	<path fill="#010202" d="M6.46,1h4.417v4.364h4.041V1h4.417v13.216h-4.417V9.791h-4.041v4.425H6.46V1L6.46,1z"/>
	<path fill="#010202" d="M25.144,5.382h-3.889V1h12.197v4.382h-3.891v8.833h-4.417V5.382L25.144,5.382z"/>
	<path fill="#010202" d="M35.386,1h4.606l2.833,4.644L45.656,1h4.608v13.216h-4.399V7.665l-3.039,4.699H42.75l-3.042-4.699v6.551
		h-4.322V1z"/>
	<path fill="#010202" d="M52.462,1h4.418v8.847h6.213v4.369H52.462V1z"/>
	<polygon fill="#FFFFFF" points="34.684,52.339 34.684,61.03 45.388,61.03 44.379,72.303 34.684,74.919 34.684,83.962 
		52.504,79.023 52.634,77.555 54.676,54.672 54.889,52.339 52.546,52.339 	"/>
	<polygon fill="#FFFFFF" points="34.684,34.746 34.684,40.145 34.684,43.417 34.684,43.438 55.652,43.438 55.652,43.438 
		55.679,43.438 55.854,41.484 56.25,37.078 56.458,34.746 	"/>
</g>
</svg>
