<?xml version="1.0" encoding="utf-8"?>
<!-- Generator: Adobe Illustrator 16.0.0, SVG Export Plug-In . SVG Version: 6.00 Build 0)  -->
<!DOCTYPE svg PUBLIC "-//W3C//DTD SVG 1.1//EN" "http://www.w3.org/Graphics/SVG/1.1/DTD/svg11.dtd">
<svg version="1.1" id="Calque_1" xmlns="http://www.w3.org/2000/svg" xmlns:xlink="http://www.w3.org/1999/xlink" x="0px" y="0px"
	 width="273.512px" height="100px" viewBox="0 0 273.512 100" enable-background="new 0 0 273.512 100" xml:space="preserve">
<g>
	<path fill="#0C74BB" d="M23.276,76.787c0,0-3.743,2.178,2.667,2.914c7.765,0.887,11.734,0.759,20.29-0.858
		c0,0,2.254,1.41,5.396,2.631C32.444,89.693,8.208,80.997,23.276,76.787L23.276,76.787z"/>
	<path fill="#0C74BB" d="M20.931,66.059c0,0-4.199,3.109,2.215,3.771c8.297,0.857,14.847,0.928,26.186-1.254
		c0,0,1.565,1.589,4.03,2.457C30.169,77.816,4.336,71.566,20.931,66.059L20.931,66.059z"/>
	<path fill="#E63030" d="M40.694,47.857c4.729,5.445-1.241,10.341-1.241,10.341s12.002-6.195,6.492-13.958
		c-5.148-7.234-9.096-10.829,12.275-23.223C58.22,21.018,24.672,29.395,40.694,47.857L40.694,47.857z"/>
	<path fill="#0C74BB" d="M66.069,84.724c0,0,2.771,2.284-3.052,4.051c-11.072,3.354-46.09,4.364-55.816,0.135
		c-3.494-1.523,3.061-3.632,5.124-4.078c2.151-0.464,3.378-0.38,3.378-0.38c-3.889-2.738-25.134,5.378-10.79,7.706
		C44.027,98.497,76.212,89.301,66.069,84.724L66.069,84.724z"/>
	<path fill="#0C74BB" d="M25.078,54.941c0,0-17.811,4.23-6.307,5.77c4.859,0.649,14.539,0.501,23.562-0.258
		c7.372-0.618,14.771-1.94,14.771-1.94s-2.598,1.114-4.479,2.397c-18.089,4.757-53.028,2.542-42.969-2.323
		C18.16,54.474,25.078,54.941,25.078,54.941L25.078,54.941z"/>
	<path fill="#0C74BB" d="M57.03,72.8c18.386-9.553,9.884-18.733,3.95-17.497c-1.451,0.303-2.102,0.565-2.102,0.565
		s0.54-0.848,1.569-1.212c11.74-4.125,20.768,12.173-3.785,18.627C56.661,73.283,56.944,73.027,57.03,72.8L57.03,72.8z"/>
	<path fill="#E63030" d="M45.945,1c0,0,10.181,10.187-9.659,25.847c-15.911,12.566-3.627,19.729-0.006,27.917
		c-9.288-8.379-16.101-15.756-11.532-22.622C31.459,22.066,50.052,17.18,45.945,1L45.945,1z"/>
	<path fill="#0C74BB" d="M26.886,98.692c17.646,1.129,44.751-0.628,45.393-8.979c0,0-1.234,3.166-14.585,5.678
		c-15.062,2.836-33.645,2.506-44.662,0.687C13.031,96.078,15.288,97.946,26.886,98.692L26.886,98.692z"/>
</g>
<g>
	<path fill="#E63030" d="M265.953,24.41h-1.258v-0.7h3.381v0.7h-1.249v3.51h-0.879v-3.51H265.953L265.953,24.41z M272.702,24.588
		h-0.014l-1.249,3.331h-0.573l-1.237-3.331h-0.012v3.331h-0.832v-4.21h1.219l1.145,2.98l1.153-2.98h1.21v4.21h-0.806v-3.331H272.702
		z"/>
	<path fill="#E63030" d="M155.024,63.975c-3.888,3.372-8,5.27-11.691,5.27c-5.258,0-8.109-3.159-8.109-8.219
		c0-5.472,3.053-9.477,15.281-9.477h4.519V63.975L155.024,63.975L155.024,63.975z M165.759,76.085V38.598
		c0-9.583-5.465-15.905-18.633-15.905c-7.684,0-14.421,1.899-19.899,4.319l1.577,6.638c4.315-1.583,9.891-3.054,15.367-3.054
		c7.589,0,10.854,3.054,10.854,9.375v4.739h-3.791c-18.433,0-26.749,7.147-26.749,17.902c0,9.264,5.483,14.529,15.799,14.529
		c6.631,0,11.585-2.736,16.211-6.744l0.845,5.688H165.759L165.759,76.085z"/>
	<path fill="#E63030" d="M201.581,76.085h-13.386L172.082,23.65h11.692l10,32.219l2.224,9.68c5.047-14,8.629-28.217,10.422-41.898
		h11.366C214.748,40.915,209.261,59.868,201.581,76.085L201.581,76.085z"/>
	<path fill="#E63030" d="M252.946,63.975c-3.899,3.372-8.016,5.27-11.697,5.27c-5.257,0-8.111-3.159-8.111-8.219
		c0-5.472,3.064-9.477,15.279-9.477h4.53V63.975L252.946,63.975L252.946,63.975z M263.686,76.085V38.598
		c0-9.583-5.482-15.905-18.638-15.905c-7.693,0-14.43,1.899-19.908,4.319l1.579,6.638c4.317-1.583,9.9-3.054,15.378-3.054
		c7.576,0,10.849,3.054,10.849,9.375v4.739h-3.795c-18.433,0-26.745,7.147-26.745,17.902c0,9.264,5.47,14.529,15.787,14.529
		c6.637,0,11.584-2.736,16.223-6.744l0.849,5.688H263.686L263.686,76.085z"/>
	<path fill="#E63030" d="M112.714,84.996c-3.06,4.47-8.005,8.007-13.417,10.004L94,88.757c4.121-2.116,7.65-5.527,9.292-8.704
		c1.417-2.833,2.006-6.471,2.006-15.182V5h11.41v59.044C116.709,75.697,115.777,80.405,112.714,84.996L112.714,84.996z"/>
</g>
</svg>
