<?xml version="1.0" encoding="utf-8"?>
<!-- Generator: Adobe Illustrator 16.0.0, SVG Export Plug-In . SVG Version: 6.00 Build 0)  -->
<!DOCTYPE svg PUBLIC "-//W3C//DTD SVG 1.1//EN" "http://www.w3.org/Graphics/SVG/1.1/DTD/svg11.dtd">
<svg version="1.1" id="Calque_1" xmlns="http://www.w3.org/2000/svg" xmlns:xlink="http://www.w3.org/1999/xlink" x="0px" y="0px"
	 width="141px" height="30px" viewBox="0 0 141 30" enable-background="new 0 0 141 30" xml:space="preserve">
<g>
	<g>
		<path fill="#FFFFFF" d="M7.513,1.94c3.323,0,4.984,1.661,4.984,4.984v7.477c0,3.323-1.661,4.985-4.984,4.985H0.036V1.94H7.513z
			 M8.759,6.924c0-0.831-0.416-1.246-1.246-1.246H3.774v9.969h3.738c0.83,0,1.246-0.416,1.246-1.246V6.924z"/>
		<path fill="#FFFFFF" d="M18.728,1.94v3.738h-3.738V1.94H18.728z M18.728,6.924v12.461h-3.738V6.924H18.728z"/>
		<path fill="#FFFFFF" d="M28.696,18.389c-0.498,0.665-1.329,0.997-2.492,0.997c-3.323,0-4.984-1.662-4.984-4.985v-2.492
			c0-3.323,1.661-4.985,4.984-4.985c1.163,0,1.994,0.333,2.492,0.997l0.374-0.997h3.365V18.14c0,4.153-2.077,6.23-6.231,6.23h-3.738
			v-3.738h3.738c1.662,0,2.492-0.83,2.492-2.492V18.389z M26.204,10.663c-0.83,0-1.246,0.416-1.246,1.247v2.492
			c0,0.831,0.416,1.246,1.246,1.246c1.163,0,1.994-0.208,2.492-0.623v-3.738C28.198,10.871,27.367,10.663,26.204,10.663z"/>
		<path fill="#FFFFFF" d="M38.666,1.94v3.738h-3.738V1.94H38.666z M38.666,6.924v12.461h-3.738V6.924H38.666z"/>
		<path fill="#FFFFFF" d="M44.896,14.401c0,0.831,0.415,1.246,1.246,1.246h4.984v3.739h-4.984c-3.323,0-4.984-1.662-4.984-4.985
			v-2.492c0-3.323,1.661-4.985,4.984-4.985h4.984v3.738h-4.984c-0.831,0-1.246,0.416-1.246,1.247V14.401z"/>
		<path fill="#FFFFFF" d="M64.834,14.401c0,3.323-1.661,4.985-4.984,4.985h-1.246c-3.323,0-4.984-1.662-4.984-4.985v-2.492
			c0-3.323,1.661-4.985,4.984-4.985h1.246c3.323,0,4.984,1.662,4.984,4.985V14.401z M57.357,14.401c0,0.831,0.415,1.246,1.246,1.246
			h1.246c0.831,0,1.246-0.416,1.246-1.246v-2.492c0-0.749-0.415-1.122-1.246-1.122h-1.246c-0.831,0-1.246,0.373-1.246,1.122V14.401z
			"/>
		<path fill="#FFFFFF" d="M74.804,1.94h3.738v17.446h-3.365l-0.373-0.997c-0.416,0.665-1.247,0.997-2.493,0.997
			c-3.322,0-4.984-1.662-4.984-4.985v-2.492c0-3.323,1.662-4.985,4.984-4.985c1.246,0,2.077,0.333,2.493,0.997V1.94z M72.311,15.647
			c1.246,0,2.077-0.208,2.493-0.623v-3.738c-0.416-0.415-1.247-0.623-2.493-0.623c-0.831,0-1.245,0.416-1.245,1.247v2.492
			C71.065,15.231,71.479,15.647,72.311,15.647z"/>
		<path fill="#FFFFFF" d="M84.772,14.65v0.374c0,0.831,0.415,1.246,1.246,1.246h5.607v3.116h-5.607
			c-3.323,0-4.984-1.662-4.984-4.985v-2.492c0-3.323,1.661-4.985,4.984-4.985h1.246c3.322,0,4.984,1.662,4.984,4.985v2.741H84.772z
			 M84.772,11.41v0.499h3.738V11.41c0-0.831-0.416-1.246-1.246-1.246h-1.246C85.188,10.164,84.772,10.58,84.772,11.41z"/>
	</g>
	<g>
		<rect x="98.536" y="26.468" fill="#036B4F" width="39.497" height="3.532"/>
		<path fill="#E62533" d="M140.964,4.092c-0.008-0.001-6.214,3.565-7.668,4.108c-1.336,0.527-1.859-0.154-1.985-0.418
			c-0.265-0.258-1.05-2.622-1.044-2.626c-0.006,0.004,0.42,0.065,1.172-0.126c0.945-0.241,9.518-5.033,9.525-5.03V4.092
			L140.964,4.092z"/>
		<g>
			<path fill="#036B4F" d="M123.647,7.238l2.667,6.675l4.708-2.477l-4.078-9.039h-5.934l-8.334,15.549
				c0.007,0.004,4.101-0.125,6.725-2.102C120.065,15.454,121.935,10.542,123.647,7.238L123.647,7.238L123.647,7.238z"/>
			<path fill="#059698" d="M131.022,11.436l-4.708,2.477c-4.03,2.062-7.856,3.873-9.917,4.455
				c-5.438,1.566-12.061,2.506-14.439,0.399c-2.238-1.987,2.93-10.304,12.701-12.154c1.585-0.353,2.51-0.263,2.51-0.252
				c0-0.01-0.67-2.844-1.191-3.441c-0.729-0.892-1.442-1.075-2.507-0.94c-2.116,0.126-11.114,2.525-14.665,10.022
				c-1.98,4.26,0.784,8.743,2.503,9.913c0.524,0.42,5.819,5.03,17.573,0.424c11.645-4.518,22.074-11.632,22.082-11.632V5.948
				C140.96,5.942,136.362,8.577,131.022,11.436z"/>
			<path fill="#036B4F" d="M127.967,18.251c0.435,1.023,1.688,4,2.008,4.859c0.418,0.939,1.462,0.939,1.462,0.935h5.432
				l-4.045-8.384C131.34,16.492,129.706,17.37,127.967,18.251z"/>
		</g>
	</g>
	<rect x="0.036" y="26.468" fill="#FFFFFF" width="92.213" height="3.532"/>
</g>
</svg>
